Format : AVI
Format/Info : Audio Video Interleave
File size : 699 MiB
Duration : 1h 32mn
Overall bit rate : 1 060 Kbps
Writing application : VirtualDubMod 1.5.4.1 (build 2178/release)
Writing library : VirtualDubMod build 2178/release

Video
ID : 0
Format : MPEG-4 Visual
Format settings, BVOP : Yes
Format settings, QPel : No
Format settings, GMC : No warppoints
Format settings, Matrix : Default (H.263)
Muxing mode : Packed bitstream
Codec ID : DX50
Codec ID/Hint : DivX 5
Duration : 1h 32mn
Bit rate : 925 Kbps
Width : 720 pixels
Height : 256 pixels
Display aspect ratio : 2.813
Frame rate : 25.000 fps
Resolution : 24 bits
Colorimetry : 4:2:0
Scan type : Progressive
Bits/(Pixel*Frame) : 0.201
Stream size : 610 MiB (87%)
Writing library : DivX 6.8.4

Audio
ID : 1
Format : MPEG Audio
Format version : Version 1
Format profile : Layer 3
Codec ID : 55
Codec ID/Hint : MP3
Duration : 1h 32mn
Bit rate mode : Constant
Bit rate : 128 Kbps
Channel(s) : 2 channels
Sampling rate : 48.0 KHz
Resolution : 16 bits
Stream size : 84.4 MiB (12%)
Alignment : Aligned on interleaves
Interleave, duration : 80 ms (2.00 video frames)
Interleave, preload duration : 504 ms
Writing library : LAME3.98r
Encoding settings : -m j -V 4 -q 2 -lowpass 17 -b 128
Language : English

Cast
* Tamer Hassan - Pat Tate
* Vincent Regan - Mickey Steele
* Terry Stone - Tony Tucker
* Adam Deacon - Darren Nicholls
* Neil Maskell - Craig Rolfe
* Dave Legeno - Jack Whomes
* Johnny Palmiero - Bernard O`Mahoney

The film is set in 1995, drug suppliers and career criminals Tony Tucker, Patrick Tate and Craig Rolfe were blasted to death by a shot gun whilst waiting in a Range Rover in Rettendon, Essex. The film charts their rise to become the most prolific dealers and feared criminals in the south of England, maintaining the hold on their empire with fear and violence until their untimely death.
 
http://www.imdb.com/title/tt1540400/

screens
 
http://img256.imageshack.us/img256/8632/bondblooddivxviceavisna.jpg 
http://img441.imageshack.us/img441/8632/bondblooddivxviceavisna.jpg 
http://img835.imageshack.us/img835/8632/bondblooddivxviceavisna.jpg 
http://img707.imageshack.us/img707/8632/bondblooddivxviceavisna.jpg